<svg width="25" height="22" viewBox="0 0 25 22" fill="none" xmlns="http://www.w3.org/2000/svg">
<g id="Group 675">
<path id="Vector 234 (Stroke)" fill-rule="evenodd" clip-rule="evenodd" d="M6.51506 1.88792C6.85835 1.85185 7.16588 2.10089 7.20195 2.44418C7.27771 3.16521 7.55984 4.20969 7.90024 5.25611C8.23665 6.29026 8.61423 7.27931 8.85746 7.86977C8.98893 8.18893 8.83678 8.55424 8.51762 8.68571C8.19846 8.81718 7.83315 8.66503 7.70168 8.34587C7.44778 7.72951 7.05889 6.71053 6.71156 5.64279C6.36821 4.58733 6.04929 3.43606 5.95879 2.57481C5.92272 2.23152 6.17177 1.92399 6.51506 1.88792Z" fill="#77A90D"/>
<path id="Vector 235 (Stroke)" fill-rule="evenodd" clip-rule="evenodd" d="M3.00364 7.43023C2.79608 7.15443 2.85142 6.76258 3.12723 6.55503C4.03551 5.87153 6.50856 5.20143 10.0729 6.5827C10.3947 6.70742 10.5545 7.06945 10.4298 7.39131C10.3051 7.71316 9.94306 7.87297 9.6212 7.74824C6.3296 6.47266 4.34326 7.20433 3.87884 7.55382C3.60303 7.76137 3.21119 7.70604 3.00364 7.43023Z" fill="#C1EA1D"/>
<path id="Vector 236 (Stroke)" fill-rule="evenodd" clip-rule="evenodd" d="M3.67141 3.37064C3.88865 3.10239 4.28221 3.06104 4.55046 3.27827L8.67896 6.62164C8.94721 6.83888 8.98856 7.23244 8.77133 7.50069C8.55409 7.76894 8.16053 7.81029 7.89228 7.59306L3.76378 4.24968C3.49553 4.03245 3.45418 3.63889 3.67141 3.37064Z" fill="#9AD51C"/>
<path id="Ellipse 189" d="M14.1379 7.82552C18.0945 11.0297 21.8682 16.9006 21.2782 17.6291C20.6882 18.3577 14.1612 15.8868 10.2045 12.6826C6.24784 9.47837 5.37649 7.96849 6.94984 6.02567C8.5232 4.08285 10.1812 4.62131 14.1379 7.82552Z" fill="#FF8718"/>
<path id="Ellipse 189 (Stroke)" fill-rule="evenodd" clip-rule="evenodd" d="M21.9629 17.4625C21.9559 17.6182 21.9165 17.8339 21.7638 18.0225C21.611 18.2111 21.4083 18.2944 21.2574 18.3337C21.1017 18.3742 20.9378 18.3847 20.7846 18.3821C20.4772 18.3769 20.1087 18.3165 19.7112 18.2224C18.9091 18.0324 17.8796 17.678 16.761 17.2066C14.525 16.2643 11.8483 14.8181 9.81105 13.1683C7.84486 11.576 6.53027 10.3205 5.94546 9.16294C5.63982 8.55797 5.51788 7.95233 5.62168 7.33175C5.72344 6.7233 6.03133 6.16664 6.46403 5.63233C6.89673 5.09803 7.37723 4.68115 7.95124 4.45513C8.53669 4.22462 9.15444 4.218 9.80973 4.39122C11.0636 4.72264 12.5649 5.74754 14.5311 7.33982C16.5684 8.98965 18.5393 11.3073 19.9258 13.2986C20.6195 14.2948 21.1801 15.2281 21.5326 15.9732C21.7074 16.3425 21.843 16.6904 21.912 16.9899C21.9464 17.1392 21.9702 17.3017 21.9629 17.4625ZM21.2781 17.6291C21.8681 16.9006 18.0944 11.0297 14.1378 7.82552C10.1811 4.62132 8.52309 4.08285 6.94974 6.02567C5.37639 7.9685 6.24773 9.47837 10.2044 12.6826C14.161 15.8868 20.6881 18.3577 21.2781 17.6291Z" fill="#A44703"/>
<path id="Ellipse 127" d="M7.22154 6.82785C7.90288 6.34065 9.04766 6.77421 9.77845 7.79623C10.5093 8.81826 14.2455 13.5088 13.5641 13.996C12.8828 14.4832 8.04187 10.5826 7.31107 9.56054C6.58027 8.53851 6.54019 7.31505 7.22154 6.82785Z" fill="#FFA858"/>
<path id="Subtract" fill-rule="evenodd" clip-rule="evenodd" d="M20.3986 17.7211C19.6826 15.7963 16.5777 11.4099 13.3511 8.79694C9.74728 5.87848 8.05042 5.1715 6.58758 6.53663C6.68855 6.36875 6.80942 6.19893 6.94973 6.02567C8.52309 4.08285 10.1811 4.62131 14.1378 7.82552C18.0944 11.0297 21.8681 16.9006 21.2781 17.6291C21.1692 17.7636 20.8582 17.7891 20.3986 17.7211Z" fill="#EA6E1B"/>
<g id="Vector">
<path fill-rule="evenodd" clip-rule="evenodd" d="M7.55623 10.739C7.4221 10.6304 7.40143 10.4336 7.51004 10.2995L8.59172 8.96378C8.70034 8.82966 8.89712 8.80898 9.03125 8.9176C9.16537 9.02622 9.18605 9.223 9.07743 9.35712L7.99575 10.6928C7.88713 10.8269 7.69035 10.8476 7.55623 10.739Z" fill="#CE5F14"/>
<path fill-rule="evenodd" clip-rule="evenodd" d="M10.396 9.21857C10.2619 9.10995 10.2412 8.91317 10.3498 8.77905L11.4315 7.44336C11.5401 7.30923 11.7369 7.28855 11.871 7.39717C12.0051 7.50579 12.0258 7.70257 11.9172 7.83669L10.8355 9.17239C10.7269 9.30651 10.5301 9.32719 10.396 9.21857Z" fill="#CE5F14"/>
<path fill-rule="evenodd" clip-rule="evenodd" d="M8.80033 6.71999C8.6662 6.61137 8.64552 6.41459 8.75414 6.28047L9.83582 4.94478C9.94444 4.81065 10.1412 4.78997 10.2753 4.89859C10.4095 5.00721 10.4301 5.20399 10.3215 5.33811L9.23985 6.67381C9.13123 6.80793 8.93445 6.82861 8.80033 6.71999Z" fill="#CE5F14"/>
<path fill-rule="evenodd" clip-rule="evenodd" d="M6.10508 8.55851C5.97095 8.4499 5.95028 8.25312 6.05889 8.11899L7.14057 6.7833C7.24919 6.64918 7.44597 6.6285 7.58009 6.73712C7.71422 6.84573 7.7349 7.04251 7.62628 7.17664L6.5446 8.51233C6.43598 8.64645 6.2392 8.66713 6.10508 8.55851Z" fill="#CE5F14"/>
<path fill-rule="evenodd" clip-rule="evenodd" d="M12.0036 9.71621C11.8695 9.60759 11.8488 9.41081 11.9574 9.27669L13.0391 7.94099C13.1477 7.80687 13.3445 7.78619 13.4786 7.89481C13.6127 8.00343 13.6334 8.20021 13.5248 8.33433L12.4431 9.67002C12.3345 9.80415 12.1377 9.82483 12.0036 9.71621Z" fill="#CE5F14"/>
<path fill-rule="evenodd" clip-rule="evenodd" d="M9.40072 12.4338C9.26659 12.3252 9.24592 12.1284 9.35453 11.9943L10.4362 10.6586C10.5448 10.5244 10.7416 10.5038 10.8757 10.6124C11.0099 10.721 11.0305 10.9178 10.9219 11.0519L9.84024 12.3876C9.73162 12.5217 9.53484 12.5424 9.40072 12.4338Z" fill="#CE5F14"/>
<path fill-rule="evenodd" clip-rule="evenodd" d="M12.674 11.8676C12.5399 11.759 12.5192 11.5622 12.6279 11.4281L13.7095 10.0924C13.8182 9.9583 14.0149 9.93762 14.1491 10.0462C14.2832 10.1549 14.3039 10.3516 14.1952 10.4858L13.1136 11.8215C13.0049 11.9556 12.8082 11.9763 12.674 11.8676Z" fill="#CE5F14"/>
<path fill-rule="evenodd" clip-rule="evenodd" d="M15.8431 12.4234C15.7089 12.3148 15.6883 12.118 15.7969 11.9839L16.8786 10.6482C16.9872 10.5141 17.184 10.4934 17.3181 10.602C17.4522 10.7106 17.4729 10.9074 17.3643 11.0415L16.2826 12.3772C16.174 12.5113 15.9772 12.532 15.8431 12.4234Z" fill="#CE5F14"/>
<path fill-rule="evenodd" clip-rule="evenodd" d="M12.7545 14.7476C12.6204 14.639 12.5997 14.4422 12.7083 14.3081L13.79 12.9724C13.8986 12.8383 14.0954 12.8176 14.2295 12.9262C14.3636 13.0348 14.3843 13.2316 14.2757 13.3657L13.194 14.7014C13.0854 14.8356 12.8886 14.8562 12.7545 14.7476Z" fill="#CE5F14"/>
<path fill-rule="evenodd" clip-rule="evenodd" d="M14.894 16.0781C14.7598 15.9695 14.7392 15.7727 14.8478 15.6386L15.9295 14.3029C16.0381 14.1688 16.2349 14.1481 16.369 14.2567C16.5031 14.3653 16.5238 14.5621 16.4152 14.6962L15.3335 16.0319C15.2249 16.1661 15.0281 16.1867 14.894 16.0781Z" fill="#CE5F14"/>
<path fill-rule="evenodd" clip-rule="evenodd" d="M17.8783 14.8758C17.7441 14.7672 17.7235 14.5704 17.8321 14.4363L18.9137 13.1006C19.0224 12.9664 19.2191 12.9458 19.3533 13.0544C19.4874 13.163 19.5081 13.3598 19.3995 13.4939L18.3178 14.8296C18.2092 14.9637 18.0124 14.9844 17.8783 14.8758Z" fill="#CE5F14"/>
<path fill-rule="evenodd" clip-rule="evenodd" d="M17.9125 17.3162C17.7784 17.2076 17.7577 17.0109 17.8663 16.8767L18.948 15.541C19.0566 15.4069 19.2534 15.3862 19.3875 15.4949C19.5216 15.6035 19.5423 15.8002 19.4337 15.9344L18.352 17.2701C18.2434 17.4042 18.0466 17.4249 17.9125 17.3162Z" fill="#CE5F14"/>
<path fill-rule="evenodd" clip-rule="evenodd" d="M19.763 18.0106C19.6288 17.9019 19.6082 17.7052 19.7168 17.571L20.7985 16.2353C20.9071 16.1012 21.1039 16.0805 21.238 16.1892C21.3721 16.2978 21.3928 16.4946 21.2842 16.6287L20.2025 17.9644C20.0939 18.0985 19.8971 18.1192 19.763 18.0106Z" fill="#CE5F14"/>
</g>
<path id="Vector 219 (Stroke)" fill-rule="evenodd" clip-rule="evenodd" d="M8.4368 7.96807L8.43827 7.97274L8.44326 7.98854C8.44768 8.0025 8.45421 8.02294 8.46238 8.04814C8.47877 8.09874 8.50147 8.16752 8.52684 8.24098C8.55244 8.31509 8.57954 8.39036 8.60479 8.45499C8.61739 8.48722 8.62854 8.51427 8.63794 8.53566C8.64702 8.5563 8.65189 8.56574 8.65253 8.56698C8.6526 8.56712 8.65256 8.56704 8.65253 8.56698C8.81913 8.86929 8.70918 9.24954 8.40688 9.41614C8.10457 9.58275 7.72444 9.47274 7.55783 9.17044C7.47835 9.02622 7.3953 8.79373 7.34535 8.64913C7.31664 8.56601 7.29134 8.48928 7.27326 8.4335C7.26419 8.40551 7.25686 8.38255 7.25174 8.3664L7.24575 8.34746L7.24349 8.34023C7.24348 8.3402 7.24341 8.33996 7.84011 8.15401L7.24349 8.34023C7.14079 8.01068 7.32461 7.66001 7.65416 7.55732C7.98368 7.45463 8.33408 7.63856 8.4368 7.96807Z" fill="white"/>
</g>
</svg>
