<svg width="50" height="50" viewBox="0 0 50 50" fill="none" xmlns="http://www.w3.org/2000/svg">
<circle cx="25" cy="25" r="25" fill="#FFEDBF"/>
<path d="M22.3691 29.0796V28.1763C22.3691 27.6229 22.4465 27.1346 22.6011 26.7114C22.7557 26.2801 23.0039 25.8732 23.3457 25.4907C23.6875 25.1001 24.1392 24.7013 24.7007 24.2944C25.2052 23.9364 25.6081 23.6149 25.9092 23.3301C26.2184 23.0452 26.4422 22.7645 26.5806 22.4878C26.7271 22.203 26.8003 21.8815 26.8003 21.5234C26.8003 20.9945 26.605 20.5916 26.2144 20.3149C25.8237 20.0382 25.2785 19.8999 24.5786 19.8999C23.8787 19.8999 23.1829 20.0098 22.4912 20.2295C21.8076 20.4492 21.1118 20.7381 20.4038 21.0962L19.0732 18.4229C19.887 17.9671 20.77 17.6009 21.7222 17.3242C22.6743 17.0394 23.716 16.897 24.8472 16.897C26.5887 16.897 27.9355 17.3161 28.8877 18.1543C29.848 18.9844 30.3281 20.0423 30.3281 21.3281C30.3281 22.0117 30.2183 22.6058 29.9985 23.1104C29.7869 23.6068 29.4614 24.0706 29.022 24.502C28.5907 24.9251 28.0495 25.3727 27.3984 25.8447C26.9102 26.2028 26.5358 26.5039 26.2754 26.748C26.015 26.9922 25.8359 27.2363 25.7383 27.4805C25.6488 27.7165 25.604 28.0054 25.604 28.3472V29.0796H22.3691ZM21.9785 33.2544C21.9785 32.4894 22.186 31.9523 22.6011 31.6431C23.0243 31.3338 23.5329 31.1792 24.127 31.1792C24.7048 31.1792 25.2012 31.3338 25.6162 31.6431C26.0394 31.9523 26.251 32.4894 26.251 33.2544C26.251 33.9868 26.0394 34.5158 25.6162 34.8413C25.2012 35.1668 24.7048 35.3296 24.127 35.3296C23.5329 35.3296 23.0243 35.1668 22.6011 34.8413C22.186 34.5158 21.9785 33.9868 21.9785 33.2544Z" fill="#403008"/>
</svg>
