<svg width="30" height="30" viewBox="0 0 30 30" fill="none" xmlns="http://www.w3.org/2000/svg">
<circle cx="15" cy="15" r="15" fill="#6ABD38"/>
<path d="M10.258 9.91761C9.92699 10.4721 9.37283 10.8367 8.75384 10.9287C8.40601 10.9804 8.05949 11.0363 7.71433 11.0964C6.74919 11.2646 6.0625 12.1522 6.0625 13.1751V21.25C6.0625 22.4409 6.98591 23.4062 8.125 23.4062H21.875C23.0141 23.4062 23.9375 22.4409 23.9375 21.25V13.1751C23.9375 12.1522 23.2508 11.2646 22.2857 11.0964C21.9405 11.0363 21.594 10.9804 21.2462 10.9287C20.6272 10.8367 20.073 10.4721 19.742 9.91762L18.9892 8.65644C18.6423 8.07518 18.0519 7.69762 17.3975 7.66088C16.6038 7.61632 15.8044 7.59375 15 7.59375C14.1956 7.59375 13.3962 7.61632 12.6025 7.66088C11.9481 7.69762 11.3577 8.07518 11.0108 8.65644L10.258 9.91761Z" stroke="#1C4D10" stroke-linecap="round" stroke-linejoin="round"/>
<path d="M19.125 16.2188C19.125 18.6005 17.2782 20.5312 15 20.5312C12.7218 20.5312 10.875 18.6005 10.875 16.2188C10.875 13.837 12.7218 11.9062 15 11.9062C17.2782 11.9062 19.125 13.837 19.125 16.2188Z" stroke="#1C4D10" stroke-linecap="round" stroke-linejoin="round"/>
<path d="M21.1875 14.0625H21.1944V14.0697H21.1875V14.0625Z" stroke="#1C4D10" stroke-linecap="round" stroke-linejoin="round"/>
</svg>
