<svg width="15" height="15" viewBox="0 0 15 15" fill="none" xmlns="http://www.w3.org/2000/svg">
<path d="M0 3C0 1.34315 1.34315 0 3 0H12C13.6569 0 15 1.34315 15 3V12C15 13.6569 13.6569 15 12 15H3C1.34315 15 0 13.6569 0 12V3Z" fill="#61BB2B"/>
<g clip-path="url(#clip0_191_246)">
<path d="M12.0547 3.94535C11.6275 3.51822 10.935 3.51822 10.5079 3.94535L10.0257 4.4275L11.5725 5.9743L12.0547 5.49215C12.4818 5.06501 12.4818 4.37249 12.0547 3.94535Z" fill="#1B4910"/>
<path d="M11.1306 6.41624L9.58377 4.86944L4.52092 9.93229C4.26393 10.1893 4.07501 10.5063 3.97125 10.8546L3.63801 11.9733C3.60525 12.0833 3.6354 12.2023 3.71654 12.2835C3.79767 12.3646 3.91675 12.3948 4.02672 12.362L5.14543 12.0287C5.49375 11.925 5.81073 11.7361 6.06772 11.4791L11.1306 6.41624Z" fill="#1B4910"/>
</g>
<defs>
<clipPath id="clip0_191_246">
<rect width="10" height="10" fill="white" transform="translate(3 3)"/>
</clipPath>
</defs>
</svg>
