<svg width="30" height="30" viewBox="0 0 30 30" fill="none" xmlns="http://www.w3.org/2000/svg">
<g filter="url(#filter0_d_49_274)">
<path d="M5.18584 11.2509C4.52965 15.6813 7.22827 18.2516 10.9883 18.1611C14.7482 18.0706 18.8459 18.8205 19.9045 14.7893C20.8095 11.3428 19.1559 9.91632 14.6121 8.16723C10.0683 6.41813 5.84204 6.82056 5.18584 11.2509Z" fill="#CA8E34"/>
<path fill-rule="evenodd" clip-rule="evenodd" d="M5.96585 16.8186C7.1739 18.1658 8.97887 18.8346 11.0035 18.7859C11.562 18.7724 12.1085 18.7777 12.6632 18.7829C13.0437 18.7866 13.428 18.7902 13.8226 18.7879C14.7616 18.7825 15.7085 18.7418 16.583 18.5656C17.4612 18.3887 18.2989 18.069 18.9961 17.4823C19.7 16.8899 20.2165 16.0625 20.5092 14.9481C20.9946 13.0997 20.821 11.6454 19.775 10.4334C18.7928 9.29527 17.1022 8.456 14.8368 7.58395C12.5107 6.68854 10.1739 6.3043 8.28667 6.78621C7.33096 7.03025 6.48291 7.49921 5.82831 8.24031C5.17449 8.98053 4.7461 9.95542 4.56778 11.1594C4.21848 13.5177 4.75399 15.4671 5.96585 16.8186ZM10.9884 18.1611C7.22846 18.2516 4.52984 15.6813 5.18603 11.2509C5.84223 6.82056 10.0685 6.41813 14.6123 8.16722C19.1561 9.91632 20.8097 11.3428 19.9047 14.7893C19.0047 18.2167 15.9077 18.188 12.6893 18.1581C12.1223 18.1528 11.5516 18.1475 10.9884 18.1611Z" fill="#855D22"/>
<path d="M11.3108 8.38306C11.7115 9.17871 10.7855 10.0265 9.59201 10.6275C8.39854 11.2285 7.01414 11.4231 6.61345 10.6275C6.21276 9.83186 6.85544 8.69962 8.04891 8.09859C9.24237 7.49755 10.9101 7.58742 11.3108 8.38306Z" fill="#DB9F45"/>
<path fill-rule="evenodd" clip-rule="evenodd" d="M5.15601 11.47C5.56037 12.5284 6.27146 13.4666 7.41287 13.8478C10.3969 14.8444 16.5109 13.3681 15.6008 9.65173C15.4781 9.15074 15.2741 8.71038 15.0091 8.32213C19.2519 10.0027 20.7828 11.4451 19.9046 14.7893C19.0045 18.2167 15.9076 18.1879 12.6892 18.1581C12.1222 18.1528 11.5515 18.1475 10.9883 18.1611C7.29078 18.2501 4.61963 15.7659 5.15601 11.47Z" fill="#AA7A32"/>
<path d="M24.9018 16.4547C24.1376 12.5123 20.0628 10.0026 15.4925 13.3631C10.9223 16.7235 7.0242 15.3794 7.37588 19.4173C7.68506 22.9672 12.6699 23.7133 16.8368 23.7133C21.0036 23.7133 25.508 19.9661 24.9018 16.4547Z" fill="#DD9B38"/>
<path fill-rule="evenodd" clip-rule="evenodd" d="M25.5167 16.342L25.5154 16.3357C25.0997 14.1912 23.7719 12.3856 21.8642 11.5931C19.9362 10.7922 17.5455 11.0778 15.1223 12.8595C13.404 14.123 11.8174 14.6789 10.4509 15.1578C10.0696 15.2914 9.7055 15.4189 9.36042 15.5542C8.59309 15.855 7.85846 16.2203 7.36116 16.8548C6.84398 17.5148 6.6569 18.3649 6.75327 19.4715C6.93927 21.6071 8.54991 22.8221 10.4538 23.4866C12.3596 24.1518 14.7316 24.3383 16.8368 24.3383C19.0946 24.3383 21.4043 23.3303 23.0709 21.871C24.7246 20.4231 25.8732 18.4072 25.5177 16.3484L25.5167 16.342ZM24.9019 16.4547C25.508 19.9661 21.0037 23.7133 16.8368 23.7133C12.6699 23.7133 7.68509 22.9672 7.37591 19.4173C7.16287 16.9711 8.50945 16.5001 10.6203 15.7618C11.9938 15.2814 13.691 14.6878 15.4926 13.3631C20.0628 10.0026 24.1377 12.5123 24.9019 16.4547Z" fill="#976923"/>
<path fill-rule="evenodd" clip-rule="evenodd" d="M20.9368 11.943C22.3722 12.656 23.3956 14.0981 23.7327 15.8372C24.3018 19.1338 20.0731 22.6517 16.1611 22.6517C12.4487 22.6517 8.04461 22.0209 7.35708 19.1081C7.3605 19.2075 7.36683 19.3105 7.37613 19.4173C7.68531 22.9672 12.6701 23.7133 16.837 23.7133C21.0039 23.7133 25.5082 19.9662 24.9021 16.4547C24.4698 14.2247 22.9782 12.453 20.9368 11.943Z" fill="#CA8E34"/>
<path d="M16.3351 15.9491C16.1138 16.1472 15.7739 16.1284 15.5758 15.9072C15.3777 15.6859 15.3965 15.346 15.6177 15.1479C15.839 14.9499 16.1789 14.9686 16.377 15.1899C16.5751 15.4111 16.5563 15.751 16.3351 15.9491Z" fill="#996518"/>
<path d="M11.0226 20.9491C10.8013 21.1472 10.4614 21.1284 10.2633 20.9072C10.0652 20.6859 10.084 20.346 10.3052 20.1479C10.5265 19.9499 10.8664 19.9686 11.0645 20.1899C11.2625 20.4111 11.2438 20.751 11.0226 20.9491Z" fill="#996518"/>
<path d="M13.8351 19.0741C13.6138 19.2722 13.2739 19.2534 13.0758 19.0322C12.8777 18.8109 12.8965 18.471 13.1177 18.2729C13.339 18.0749 13.6789 18.0936 13.877 18.3149C14.0751 18.5361 14.0563 18.876 13.8351 19.0741Z" fill="#996518"/>
<path d="M16.3351 20.9491C16.1138 21.1472 15.7739 21.1284 15.5758 20.9072C15.3777 20.6859 15.3965 20.346 15.6177 20.1479C15.839 19.9499 16.1789 19.9686 16.377 20.1899C16.5751 20.4111 16.5563 20.751 16.3351 20.9491Z" fill="#996518"/>
<path d="M20.3976 16.8866C20.1763 17.0847 19.8364 17.0659 19.6383 16.8447C19.4402 16.6234 19.459 16.2835 19.6802 16.0854C19.9015 15.8874 20.2414 15.9061 20.4395 16.1274C20.6375 16.3486 20.6188 16.6885 20.3976 16.8866Z" fill="#996518"/>
<path d="M20.3976 13.7616C20.1763 13.9597 19.8364 13.9409 19.6383 13.7197C19.4402 13.4984 19.459 13.1585 19.6802 12.9604C19.9015 12.7624 20.2414 12.7811 20.4395 13.0024C20.6376 13.2236 20.6188 13.5635 20.3976 13.7616Z" fill="#996518"/>
<path d="M24.1476 17.1991C23.9263 17.3972 23.5864 17.3784 23.3883 17.1572C23.1902 16.9359 23.209 16.596 23.4302 16.3979C23.6515 16.1999 23.9914 16.2186 24.1895 16.4399C24.3876 16.6611 24.3688 17.001 24.1476 17.1991Z" fill="#996518"/>
<path d="M18.2101 18.4491C17.9888 18.6472 17.6489 18.6284 17.4508 18.4072C17.2527 18.1859 17.2715 17.846 17.4927 17.6479C17.714 17.4499 18.0539 17.4686 18.252 17.6899C18.45 17.9111 18.4313 18.251 18.2101 18.4491Z" fill="#996518"/>
<path d="M22.3679 19.5973C22.1467 19.7953 21.8068 19.7766 21.6087 19.5554C21.4106 19.3341 21.4294 18.9942 21.6506 18.7961C21.8718 18.598 22.2118 18.6168 22.4098 18.838C22.6079 19.0593 22.5892 19.3992 22.3679 19.5973Z" fill="#996518"/>
<path d="M18.9304 22.0973C18.7092 22.2953 18.3693 22.2766 18.1712 22.0554C17.9731 21.8341 17.9919 21.4942 18.2131 21.2961C18.4343 21.098 18.7743 21.1168 18.9723 21.338C19.1704 21.5593 19.1517 21.8992 18.9304 22.0973Z" fill="#996518"/>
<path d="M22.0554 22.0973C21.8342 22.2953 21.4943 22.2766 21.2962 22.0554C21.0981 21.8341 21.1169 21.4942 21.3381 21.2961C21.5593 21.098 21.8993 21.1168 22.0973 21.338C22.2954 21.5593 22.2767 21.8992 22.0554 22.0973Z" fill="#996518"/>
<path d="M16.7429 23.9723C16.5217 24.1703 16.1818 24.1516 15.9837 23.9304C15.7856 23.7091 15.8044 23.3692 16.0256 23.1711C16.2468 22.973 16.5868 22.9918 16.7848 23.213C16.9829 23.4343 16.9642 23.7742 16.7429 23.9723Z" fill="#996518"/>
<path d="M13.2101 23.7616C12.9888 23.9597 12.6489 23.9409 12.4508 23.7197C12.2527 23.4984 12.2715 23.1585 12.4927 22.9604C12.714 22.7624 13.0539 22.7811 13.252 23.0024C13.45 23.2236 13.4313 23.5635 13.2101 23.7616Z" fill="#996518"/>
<path d="M8.21006 18.1366C7.98883 18.3347 7.64891 18.3159 7.45083 18.0947C7.25275 17.8734 7.27151 17.5335 7.49274 17.3354C7.71397 17.1374 8.05389 17.1561 8.25197 17.3774C8.45005 17.5986 8.43129 17.9385 8.21006 18.1366Z" fill="#996518"/>
<path d="M13.2101 15.6366C12.9888 15.8347 12.6489 15.8159 12.4508 15.5947C12.2527 15.3734 12.2715 15.0335 12.4927 14.8354C12.714 14.6374 13.0539 14.6561 13.252 14.8774C13.45 15.0986 13.4313 15.4385 13.2101 15.6366Z" fill="#996518"/>
<path d="M24.1475 14.3866C23.9263 14.5847 23.5863 14.5659 23.3883 14.3447C23.1902 14.1234 23.2089 13.7835 23.4302 13.5854C23.6514 13.3874 23.9913 13.4061 24.1894 13.6274C24.3875 13.8486 24.3687 14.1885 24.1475 14.3866Z" fill="#996518"/>
<path d="M12.8104 16.8885C13.2111 17.6841 12.5684 18.8163 11.3749 19.4174C10.1815 20.0184 8.88914 19.8606 8.48845 19.065C8.08776 18.2694 8.73044 17.1371 9.92391 16.5361C11.1174 15.9351 12.4097 16.0928 12.8104 16.8885Z" fill="#EEB257"/>
<path fill-rule="evenodd" clip-rule="evenodd" d="M10.6338 17.3538C10.7951 17.6589 10.6786 18.0371 10.3734 18.1985C10.1838 18.2987 10.035 18.4253 9.91839 18.578C9.70895 18.8524 9.31674 18.905 9.04237 18.6956C8.76799 18.4861 8.71535 18.0939 8.92479 17.8195C9.15636 17.5162 9.44735 17.2741 9.78911 17.0934C10.0943 16.9321 10.4724 17.0486 10.6338 17.3538Z" fill="white"/>
</g>
<defs>
<filter id="filter0_d_49_274" x="0" y="0" width="34" height="34" filterUnits="userSpaceOnUse" color-interpolation-filters="sRGB">
<feFlood flood-opacity="0" result="BackgroundImageFix"/>
<feColorMatrix in="SourceAlpha" type="matrix" values="0 0 0 0 0 0 0 0 0 0 0 0 0 0 0 0 0 0 127 0" result="hardAlpha"/>
<feOffset dx="4" dy="4"/>
<feColorMatrix type="matrix" values="0 0 0 0 0 0 0 0 0 0 0 0 0 0 0 0 0 0 0.2 0"/>
<feBlend mode="normal" in2="BackgroundImageFix" result="effect1_dropShadow_49_274"/>
<feBlend mode="normal" in="SourceGraphic" in2="effect1_dropShadow_49_274" result="shape"/>
</filter>
</defs>
</svg>
